<?xml version="1.0" encoding="UTF-8"?>
<svg width="85px" height="85px" viewBox="0 0 85 85" version="1.1" xmlns="http://www.w3.org/2000/svg" xmlns:xlink="http://www.w3.org/1999/xlink">
    <!-- Generator: Sketch 57.1 (83088) - https://sketch.com -->
    <title>logo</title>
    <desc>Created with Sketch.</desc>
    <defs>
        <polygon id="path-1" points="7.98122066e-05 0.159847775 84.8396573 0.159847775 84.8396573 84.8009368 7.98122066e-05 84.8009368"></polygon>
    </defs>
    <g id="Symbols" stroke="none" stroke-width="1" fill="none" fill-rule="evenodd">
        <g id="logo">
            <g id="Group-24">
                <g>
                    <g id="Group-8" transform="translate(0.000000, 0.039215)">
                        <g id="Group-3">
                            <mask id="mask-2" fill="white">
                                <use xlink:href="#path-1"></use>
                            </mask>
                            <g id="Clip-2"></g>
                            <path d="M84.8396573,42.4804122 C84.8396573,65.8534215 65.8475446,84.8010562 42.4198685,84.8010562 C18.991993,84.8010562 7.98122066e-05,65.8534215 7.98122066e-05,42.4804122 C7.98122066e-05,19.1074028 18.991993,0.15976815 42.4198685,0.15976815 C65.8475446,0.15976815 84.8396573,19.1074028 84.8396573,42.4804122" id="Fill-1" fill="#00818C" mask="url(#mask-2)"></path>
                        </g>
                        <path d="M32.2323791,39.4944637 C30.2019566,39.4944637 28.5560293,37.8344754 28.5560293,35.786911 C28.5560293,33.7393466 30.2019566,32.0793583 32.2323791,32.0793583 C34.2628016,32.0793583 35.9087289,33.7393466 35.9087289,35.786911 C35.9087289,37.8344754 34.2628016,39.4944637 32.2323791,39.4944637 M36.6595622,31.2745457 C35.585689,30.063445 34.013189,29.3157635 32.2844566,29.3157635 C30.4773087,29.3157635 28.9580833,30.063445 27.7794566,31.2745457 C26.6523087,32.5107283 25.9717101,34.0311733 25.9717101,35.7833279 C25.9717101,37.5862436 26.6523087,39.183726 27.7794566,40.3177892 C28.9580833,41.5282927 30.4773087,42.275377 32.2844566,42.275377 C34.013189,42.275377 35.585689,41.5282927 36.6595622,40.3177892 C37.838189,39.183726 38.4930481,37.5862436 38.4930481,35.7833279 C38.4930481,34.0311733 37.838189,32.5107283 36.6595622,31.2745457" id="Fill-4" fill="#FEFEFE"></path>
                        <path d="M40.1470563,53.495178 C38.1166338,53.495178 36.4707066,51.8353888 36.4707066,49.7876253 C36.4707066,47.7400609 38.1166338,46.0800726 40.1470563,46.0800726 C42.1774789,46.0800726 43.8234061,47.7400609 43.8234061,49.7876253 C43.8234061,51.8353888 42.1774789,53.495178 40.1470563,53.495178 M44.5742394,45.27526 C43.5003662,44.0641593 41.9278662,43.3164778 40.1991338,43.3164778 C38.3919859,43.3164778 36.8727606,44.0641593 35.6941338,45.27526 C34.5669859,46.5114426 33.8863873,48.0320867 33.8863873,49.7840422 C33.8863873,51.5869578 34.5669859,53.1844403 35.6941338,54.3187026 C36.8727606,55.5292061 38.3919859,56.2762904 40.1991338,56.2762904 C41.9278662,56.2762904 43.5003662,55.5292061 44.5742394,54.3187026 C45.7528662,53.1844403 46.4077254,51.5869578 46.4077254,49.7840422 C46.4077254,48.0320867 45.7528662,46.5114426 44.5742394,45.27526" id="Fill-6" fill="#FEFEFE"></path>
                    </g>
                    <g id="Group-23" transform="translate(12.769953, 24.125867)" fill="#FEFEFE">
                        <path d="M3.85365258,16.6944379 C3.85365258,17.4934778 3.19879343,18.1123653 2.38650469,18.1123653 C1.73224413,18.1123653 1.18153991,17.6483489 0.9977723,17.0557377 C0.972032864,16.9524239 0.945694836,16.8234309 0.945694836,16.6944379 L0.945694836,1.49357143 C0.945694836,0.694531616 1.60055399,0.076440281 2.38650469,0.076440281 C3.19879343,0.076440281 3.85365258,0.694531616 3.85365258,1.49357143 L3.85365258,5.97667447 C4.69168075,5.53893443 5.63506103,5.22959016 6.65625822,5.22959016 C9.82580047,5.22959016 12.3674202,7.78018735 12.3674202,10.8724356 L12.3674202,16.6944379 C12.3674202,17.4934778 11.7383005,18.1123653 10.9266103,18.1123653 C10.1143216,18.1123653 9.48520188,17.4934778 9.48520188,16.6944379 L9.48520188,10.8724356 C9.48520188,9.35139344 8.22815962,8.11461358 6.65625822,8.08953162 C5.11069484,8.11461358 3.87939202,9.35139344 3.85365258,10.8724356 L3.85365258,16.6944379 Z" id="Fill-9"></path>
                        <path d="M37.4460915,10.562733 L37.4460915,10.6397705 L37.4460915,16.7460351 C37.4460915,17.4937166 36.8169718,18.111808 36.0585563,18.111808 C35.3240845,18.111808 34.6434859,17.4937166 34.6434859,16.7460351 L34.6434859,10.6397705 L34.6434859,10.562733 C34.6171479,9.14500468 33.4121831,7.98645667 31.9456338,7.98645667 C30.5048239,7.98645667 29.2998592,9.17068384 29.2998592,10.6397705 L29.2998592,16.7460351 C29.2998592,16.7973934 29.2735211,17.0034239 29.2735211,17.0034239 C29.2533685,17.1527213 29.1951056,17.2876862 29.1951056,17.2876862 C28.9592606,17.7505082 28.4348944,18.111808 27.8859859,18.111808 C27.7800352,18.111808 27.7275587,18.1104145 27.6232042,18.0861288 C26.9946831,17.9314567 26.4972535,17.4154848 26.4972535,16.7460351 L26.4972535,10.6397705 L26.4972535,10.6134941 L26.4972535,6.62068384 C26.4972535,5.82224122 27.1257746,5.22923185 27.8859859,5.22923185 C28.4348944,5.22923185 28.9335211,5.51349415 29.1430282,6.00259251 C29.9810563,5.51349415 30.9495775,5.22923185 31.9456338,5.22923185 C33.5959507,5.22923185 35.0630986,5.89927869 36.0585563,7.00766276 C37.0270775,5.89927869 38.5205634,5.22923185 40.1702817,5.22923185 C43.182993,5.22923185 45.618662,7.65143326 45.618662,10.6397705 L45.618662,16.7460351 C45.618662,17.4937166 44.9903404,18.111808 44.2311268,18.111808 C43.4715141,18.111808 42.8160563,17.4937166 42.8160563,16.7460351 L42.8160563,10.6397705 C42.8160563,9.17068384 41.6110915,7.98645667 40.1702817,7.98645667 C38.6773944,7.98645667 37.4987676,9.14500468 37.4460915,10.562733" id="Fill-11"></path>
                        <path d="M46.4134718,11.6704204 C46.4404085,8.16670843 49.2166761,5.22913232 52.8050329,5.22913232 C56.2100211,5.22913232 58.9084718,7.72837119 59.1179789,11.206404 L59.1179789,11.335397 C59.1179789,11.3873525 59.1179789,11.5163454 59.0916408,11.5677037 C59.0136244,12.1857951 58.4631197,12.5984532 57.7292465,12.5984532 L49.3998451,12.5984532 C49.5301385,13.1908653 49.8186596,13.860315 50.2905493,14.2986522 C50.8404554,14.9167436 51.8879906,15.38076 52.8050329,15.4583946 C53.7480141,15.5348349 54.8306667,15.2384297 55.5294225,14.8140269 C56.4634249,14.2464977 57.1532019,14.3237342 57.4932019,14.7357951 C57.8338005,15.0970948 58.0961831,15.8698583 57.4932019,16.4109122 C56.2100211,17.5700574 54.6648568,18.1117084 52.8050329,18.1117084 C49.2166761,18.0860293 46.4404085,15.1741323 46.4134718,11.6704204 M49.2687535,10.4079614 L56.6817113,10.4079614 C56.4193286,9.37721194 55.0832723,7.64436651 52.8050329,7.67701288 C50.5760775,7.708863 49.478061,9.35153279 49.2687535,10.4079614" id="Fill-13"></path>
                        <path d="M12.7557465,25.7355714 L12.7557465,30.5268244 C12.7557465,33.9021405 9.95254225,36.7109227 6.46933803,36.7109227 C5.49961972,36.7109227 4.5305,36.4792131 3.71821127,36.066356 C3.03761268,35.7572108 2.72335211,34.9072108 3.08969014,34.2114848 C3.42969014,33.5157588 4.24197887,33.2577728 4.97525352,33.5679133 C5.42120423,33.799623 5.9186338,33.9272225 6.46933803,33.9272225 C8.17173239,33.9272225 9.5598662,32.7429953 9.8998662,31.1713911 C8.95708451,31.8155597 7.75211972,32.2019415 6.46933803,32.2019415 C4.74000704,32.2019415 3.1423662,31.454459 2.0158169,30.2437564 C0.889267606,29.1102904 0.182330986,27.513007 0.182330986,25.7092951 C0.182330986,23.9314614 0.889267606,22.3339789 2.0158169,21.1228782 C3.1423662,19.9643302 4.74000704,19.2166487 6.46933803,19.2166487 C7.83053521,19.2166487 9.0355,19.6287096 9.97888028,20.2987564 C10.1099718,19.6800679 10.6858169,19.2166487 11.3670141,19.2166487 C12.1529648,19.2166487 12.7557465,19.8353372 12.7557465,20.5824215 L12.7557465,25.7092951 L12.7557465,25.7355714 Z M9.95254225,25.7092951 C9.95254225,24.6785457 9.53352817,23.6997518 8.95708451,23.0816604 C8.27648592,22.3596581 7.46419718,21.9728782 6.46933803,21.9728782 C5.55229577,21.9728782 4.68733099,22.3596581 4.05880986,23.0816604 C3.42969014,23.6997518 3.01067606,24.6785457 3.01067606,25.7092951 C3.01067606,26.7916019 3.42969014,27.770993 4.05880986,28.3626089 C4.68733099,29.0589321 5.55229577,29.4190375 6.46933803,29.4190375 C7.46419718,29.4190375 8.27648592,29.0589321 8.95708451,28.3626089 C9.53352817,27.770993 9.95254225,26.7916019 9.95254225,25.7092951 L9.95254225,25.7092951 Z" id="Fill-15"></path>
                        <path d="M39.7862852,32.0987869 C36.8005106,32.0987869 34.3377054,29.6771827 34.3377054,26.7402037 L34.3377054,20.5825808 C34.3377054,19.8605785 34.9664261,19.216808 35.7258392,19.216808 C36.5113908,19.216808 37.113973,19.8605785 37.113973,20.5825808 L37.113973,26.7402037 C37.113973,28.2086932 38.2933979,29.3678384 39.7862852,29.3678384 C41.3055106,29.3678384 42.5102758,28.2086932 42.5362148,26.7402037 L42.5362148,20.5825808 C42.5362148,19.8605785 43.113257,19.216808 43.8984096,19.216808 C44.6324824,19.216808 45.313081,19.8605785 45.313081,20.5825808 L45.313081,26.7402037 C45.313081,29.6771827 42.7983979,32.0987869 39.7862852,32.0987869" id="Fill-17"></path>
                        <path d="M46.3867746,35.3199684 L46.3867746,25.7093946 L46.3867746,25.6831183 L46.3867746,20.5825211 C46.3867746,19.8354368 47.0158944,19.2167482 47.7749085,19.2167482 C48.5087817,19.2167482 49.1115634,19.7062447 49.2157183,20.2725796 C50.1854366,19.6544883 51.4430775,19.2167482 52.7779366,19.2167482 C56.2629366,19.2167482 59.1178192,22.1535281 59.1178192,25.6831183 C59.1178192,29.2131066 56.2629366,32.0724508 52.7779366,32.0724508 C51.4690164,32.0724508 50.2117746,31.6866663 49.268993,31.0166194 L49.268993,35.3199684 C49.268993,36.0413735 48.6135352,36.7108232 47.7749085,36.7108232 C47.0158944,36.7108232 46.3867746,36.0413735 46.3867746,35.3199684 M49.268993,25.6831183 C49.268993,26.6881885 49.6405188,27.6333407 50.2897911,28.2599918 C51.0843216,29.0271815 51.8094155,29.3420995 52.7779366,29.3420995 C53.6692394,29.3420995 54.5593451,28.981397 55.2411408,28.2599918 C55.8435235,27.6675796 56.2629366,26.6881885 56.2629366,25.6831183 C56.2629366,24.6786452 55.8435235,23.7518068 55.2411408,23.08176 C54.5593451,22.3852377 53.6692394,22.0259286 52.7779366,22.0259286 C51.8094155,22.0259286 50.9452488,22.3852377 50.2897911,23.08176 C49.608993,23.7518068 49.268993,24.6786452 49.268993,25.6831183" id="Fill-19"></path>
                        <path d="M16.8671725,25.7371241 C16.8671725,23.8420422 18.2864331,22.2734239 20.1366796,22.002897 C20.3216444,21.9664684 20.5149894,21.9473583 20.717912,21.9473583 C21.5038627,21.9473583 22.1060458,21.3035878 22.1060458,20.5821827 C22.1060458,19.8350984 21.5038627,19.2426862 20.717912,19.2426862 C19.4081937,19.2164098 18.2816444,19.6804262 17.4172782,20.2471593 C17.2341092,20.3761522 17.0246021,20.5821827 16.8671725,20.762534 L16.8671725,20.5821827 C16.8671725,19.8350984 16.2123134,19.2426862 15.4269613,19.2426862 C14.66675,19.2426862 14.0382289,19.8350984 14.0382289,20.5821827 L14.0382289,30.7332131 C14.0382289,31.4808946 14.66675,32.0989859 15.4269613,32.0989859 C16.2123134,32.0989859 16.8671725,31.4808946 16.8671725,30.7332131 L16.8671725,25.8380492 C16.8677711,25.8356604 16.8689683,25.8332717 16.8695669,25.8314801 C16.8689683,25.79963 16.8671725,25.7687752 16.8671725,25.7371241" id="Fill-21"></path>
                    </g>
                </g>
            </g>
        </g>
    </g>
</svg>